# xmcd CD database file
#
# Track frame offsets:
#	150
#	20873
#	34210
#	48787
#	68643
#	89151
#	106494
#	116938
#	127983
#	142494
#	155337
#
# Disc length: 2323 seconds
#
# Revision: 0
# Processed by: cddbd v1.5.2PL0 Copyright (c) Steve Scherf et al.
# Submitted via: CDex 1.51
#
DISCID=a409110b
DTITLE=Atlanta Mandolin Orchestra - Puttin' On The Ritz
DYEAR=2006
DGENRE=Jazz
TTITLE0=Benvenuto [A. De Meo]
TTITLE1=Puttin' On The Ritz [I Berlin]
TTITLE2=Samba SudAmericana [Markus Kugler]
TTITLE3=Alma Brasileria [Jacob do Bandolim]
TTITLE4=Chattanooga Choo-Choo [Harry Warren]
TTITLE5=Halley's Comet [H. J. Lincoln]
TTITLE6=Musical Prayer [Francois Menichetti]
TTITLE7=Tico Tico [Z Abreu]
TTITLE8=Hippodrome Galop [William Foden]
TTITLE9=Tango Infernal [Markus Kugler]
TTITLE10=Ritual Dance [Bruce Graybill]
EXTD=YEAR: 2006
EXTT0=
EXTT1=
EXTT2=
EXTT3=
EXTT4=
EXTT5=
EXTT6=
EXTT7=
EXTT8=
EXTT9=
EXTT10=
PLAYORDER=
